/* XPM */
static char * europe_xpm[] = {
"16 11 4 1",
" 	c None",
".	c #000000",
"+	c #0000FF",
"@	c #FFFF00",
"................",
".++++++++++++++.",
".++++++@+++++++.",
".++++@+++@+++++.",
".++++++++++++++.",
".+++@+++++@++++.",
".++++++++++++++.",
".++++@+++@+++++.",
".++++++@+++++++.",
".++++++++++++++.",
"................"};
