/* XPM */
static char * france_xpm[] = {
"16 11 5 1",
" 	c None",
".	c #000000",
"+	c #0000FF",
"@	c #FFFFFF",
"#	c #FF0000",
"................",
".+++++@@@@#####.",
".+++++@@@@#####.",
".+++++@@@@#####.",
".+++++@@@@#####.",
".+++++@@@@#####.",
".+++++@@@@#####.",
".+++++@@@@#####.",
".+++++@@@@#####.",
".+++++@@@@#####.",
"................"};
