/* XPM */
static char * fullscreen_xpm[] = {
"32 32 253 2",
"  	c None",
". 	c #3995E5",
"+ 	c #4EA4EB",
"@ 	c #4BA0E9",
"# 	c #489BE8",
"$ 	c #4597E6",
"% 	c #4293E4",
"& 	c #3F8FE2",
"* 	c #3B8AE0",
"= 	c #3886DE",
"- 	c #3582DD",
"; 	c #327DDB",
"> 	c #2E79D9",
", 	c #2B74D7",
"' 	c #2870D5",
") 	c #256BD3",
"! 	c #2167D2",
"~ 	c #1E63D0",
"{ 	c #1B5ECE",
"] 	c #185ACC",
"^ 	c #1455CA",
"/ 	c #1151C8",
"( 	c #0E4CC7",
"_ 	c #0A48C5",
": 	c #0844C3",
"< 	c #0641C1",
"[ 	c #053FBF",
"} 	c #033ABB",
"| 	c #0133A5",
"1 	c #6EBBF5",
"2 	c #8ACEFF",
"3 	c #85C9FF",
"4 	c #80C4FF",
"5 	c #7ABEFF",
"6 	c #74B8FF",
"7 	c #6EB2FF",
"8 	c #68ACFF",
"9 	c #61A6FF",
"0 	c #5BA0FF",
"a 	c #559AFF",
"b 	c #4E93FF",
"c 	c #488DFF",
"d 	c #4186FF",
"e 	c #3B80FF",
"f 	c #347AFF",
"g 	c #2E73FF",
"h 	c #276CFF",
"i 	c #2066FF",
"j 	c #1A5FFF",
"k 	c #1359FF",
"l 	c #0C52FF",
"m 	c #054BFF",
"n 	c #0349FF",
"o 	c #0347FD",
"p 	c #0231C5",
"q 	c #0032A4",
"r 	c #80C5FF",
"s 	c #7BBFFF",
"t 	c #76BAFF",
"u 	c #70B5FF",
"v 	c #6AAFFF",
"w 	c #64A9FF",
"x 	c #5EA3FF",
"y 	c #589DFF",
"z 	c #5297FF",
"A 	c #4C91FF",
"B 	c #458BFF",
"C 	c #3F84FF",
"D 	c #397EFF",
"E 	c #3277FF",
"F 	c #2C71FF",
"G 	c #256BFF",
"H 	c #1E64FF",
"I 	c #185EFF",
"J 	c #1157FF",
"K 	c #0B50FF",
"L 	c #044AFF",
"M 	c #0330D9",
"N 	c #84C8FF",
"O 	c #7BC0FF",
"P 	c #77BBFF",
"Q 	c #71B6FF",
"R 	c #6CB1FF",
"S 	c #67ABFF",
"T 	c #4F94FF",
"U 	c #498EFF",
"V 	c #4388FF",
"W 	c #3C82FF",
"X 	c #367BFF",
"Y 	c #3075FF",
"Z 	c #296FFF",
"` 	c #2368FF",
" .	c #1C62FF",
"..	c #165BFF",
"+.	c #0F55FF",
"@.	c #094FFF",
"#.	c #BFE1FF",
"$.	c #BDE0FF",
"%.	c #BBDEFF",
"&.	c #B9DBFF",
"*.	c #B7D9FF",
"=.	c #B4D6FF",
"-.	c #B1D4FF",
";.	c #AFD1FF",
">.	c #ACCEFF",
",.	c #A9CBFF",
"'.	c #A6C8FF",
").	c #A3C5FF",
"!.	c #A0C2FF",
"~.	c #9DBFFF",
"{.	c #9ABCFF",
"].	c #96B9FF",
"^.	c #93B6FF",
"/.	c #90B3FF",
"(.	c #8DB0FF",
"_.	c #89ACFF",
":.	c #85A8FF",
"<.	c #82A5FE",
"[.	c #7FA2FE",
"}.	c #7EA1FD",
"|.	c #7DA0FD",
"1.	c #7DA0FC",
"2.	c #768CE3",
"3.	c #3994E5",
"4.	c #FFFFFF",
"5.	c #FEFEFE",
"6.	c #FDFDFE",
"7.	c #FBFBFD",
"8.	c #FAFAFC",
"9.	c #F9F9FB",
"0.	c #F7F7FA",
"a.	c #F6F6FA",
"b.	c #F5F5F9",
"c.	c #E7E6EC",
"d.	c #3893E4",
"e.	c #F32208",
"f.	c #F32C0C",
"g.	c #F43A12",
"h.	c #F54B1B",
"i.	c #F55321",
"j.	c #F43F15",
"k.	c #F32F0D",
"l.	c #F4F4F8",
"m.	c #E5E4EB",
"n.	c #3792E3",
"o.	c #F43D14",
"p.	c #F54C1D",
"q.	c #F8F8FB",
"r.	c #F5501F",
"s.	c #F3F3F7",
"t.	c #E3E2E9",
"u.	c #3690E2",
"v.	c #F5612C",
"w.	c #F7743C",
"x.	c #F7773F",
"y.	c #F1F1F7",
"z.	c #E1E0E7",
"A.	c #368FE1",
"B.	c #F88A52",
"C.	c #F99E69",
"D.	c #F9A16C",
"E.	c #F0F0F6",
"F.	c #DFDEE6",
"G.	c #358EE0",
"H.	c #EFEFF5",
"I.	c #DDDCE4",
"J.	c #348CDF",
"K.	c #FCFCFD",
"L.	c #F3F3F8",
"M.	c #F2F2F7",
"N.	c #EEEEF4",
"O.	c #DAD9E3",
"P.	c #338BDE",
"Q.	c #FEFEFF",
"R.	c #EDEDF4",
"S.	c #D8D7E1",
"T.	c #3289DD",
"U.	c #EEEEF5",
"V.	c #EBEBF3",
"W.	c #D6D5DF",
"X.	c #3188DC",
"Y.	c #FBFBFC",
"Z.	c #EAEAF2",
"`.	c #D4D3DE",
" +	c #3186DB",
".+	c #E9E9F2",
"++	c #D2D1DC",
"@+	c #3085DA",
"#+	c #F6F6F9",
"$+	c #E8E8F1",
"%+	c #D0CEDA",
"&+	c #2F83DA",
"*+	c #F9F9FC",
"=+	c #F1F1F6",
"-+	c #E6E6F0",
";+	c #CFCDD9",
">+	c #2E82D9",
",+	c #F4F4F9",
"'+	c #ECECF3",
")+	c #E5E5EF",
"!+	c #CECDD9",
"~+	c #2D81D8",
"{+	c #E4E4EF",
"]+	c #2C7FD7",
"^+	c #EFEFF6",
"/+	c #E3E3EE",
"(+	c #CECCD9",
"_+	c #2C7ED6",
":+	c #E7E7F0",
"<+	c #E2E2ED",
"[+	c #CDCCD9",
"}+	c #2B7CD5",
"|+	c #E0E0EC",
"1+	c #2A7BD4",
"2+	c #E6E6EF",
"3+	c #DFDFEC",
"4+	c #CDCBD8",
"5+	c #2979D3",
"6+	c #F2F2F5",
"7+	c #F0F0F3",
"8+	c #EEEEF2",
"9+	c #ECECF0",
"0+	c #EBEAEF",
"a+	c #E9E8ED",
"b+	c #E1E0E8",
"c+	c #DDDCE5",
"d+	c #DBDAE3",
"e+	c #DAD8E2",
"f+	c #D8D6E0",
"g+	c #D6D4DF",
"h+	c #D4D3DD",
"i+	c #D0CFDA",
"j+	c #CFCEDA",
"k+	c #C8C7D4",
"l+	c #2878D2",
"m+	c #2674CF",
"n+	c #2470CD",
"o+	c #226DCB",
"p+	c #2069C8",
"q+	c #1D65C6",
"r+	c #1B62C3",
"s+	c #195EC1",
"t+	c #175ABE",
"u+	c #1556BC",
"v+	c #1352B9",
"w+	c #114FB7",
"x+	c #0E4BB5",
"y+	c #0C47B2",
"z+	c #0A44B0",
"A+	c #0840AD",
"B+	c #063CAB",
"C+	c #0438A8",
"D+	c #0235A6",
"                                                                ",
"                                                                ",
"  . + @ # $ % & * = - ; > , ' ) ! ~ { ] ^ / ( _ : < [ } |       ",
". 1 2 3 4 5 6 7 8 9 0 a b c d e f g h i j k l m n n n o p q     ",
". 2 3 r s t u v w x y z A B C D E F G H I J K L n n n n M q     ",
". N 4 O P Q R S 9 0 a T U V W X Y Z `  ...+.@.n n n n n M q     ",
". #.$.%.&.*.=.-.;.>.,.'.).!.~.{.].^./.(._.:.<.[.}.}.|.1.2.q     ",
"3.4.4.4.4.4.4.4.4.4.4.4.4.4.4.4.4.4.4.4.5.6.7.8.9.0.a.b.c.q     ",
"d.4.4.e.f.g.h.4.4.4.4.4.4.4.4.4.4.4.4.5.6.7.8.i.j.k.e.l.m.q     ",
"n.4.4.k.o.p.4.4.4.4.4.4.4.4.4.4.4.4.5.6.7.8.9.q.r.o.f.s.t.q     ",
"u.4.4.j.r.v.w.4.4.4.4.4.4.4.4.4.4.5.6.7.8.9.q.x.v.p.g.y.z.q     ",
"A.4.4.i.4.x.B.C.4.4.4.4.4.4.4.4.5.6.7.8.9.q.D.B.w.s.h.E.F.q     ",
"G.4.4.4.4.4.D.4.4.4.4.4.4.4.4.5.6.7.8.9.q.0.b.C.s.y.E.H.I.q     ",
"J.4.4.4.4.4.4.4.4.4.4.4.4.4.5.6.K.8.9.q.0.b.l.L.M.E.H.N.O.q     ",
"P.4.4.4.4.4.4.4.4.4.4.4.4.Q.6.K.8.9.q.0.b.l.L.M.E.H.N.R.S.q     ",
"T.4.4.4.4.4.4.4.4.4.4.4.Q.6.K.8.9.q.0.b.l.L.M.E.H.U.R.V.W.q     ",
"X.4.4.4.4.4.4.4.4.4.4.Q.6.K.Y.9.q.0.b.l.L.M.E.H.U.R.V.Z.`.q     ",
" +4.4.4.4.4.4.4.4.4.Q.6.K.Y.9.q.0.b.l.L.M.E.H.U.R.V.Z..+++q     ",
"@+4.4.4.4.4.4.4.4.Q.6.K.Y.9.q.0.#+l.L.M.E.H.U.R.V.Z..+$+%+q     ",
"&+4.4.4.4.4.4.4.Q.6.K.Y.*+q.0.#+l.L.M.=+H.U.R.V.Z..+$+-+;+q     ",
">+4.4.4.4.4.C.Q.6.K.Y.*+q.0.#+,+L.M.=+H.U.R.'+D..+$+-+)+!+q     ",
"~+4.4.h.4.w.B.D.K.Y.*+q.0.#+,+L.M.=+H.U.R.'+C.B.x.-+i.{+!+q     ",
"]+4.4.g.p.v.x.K.Y.8.q.0.#+,+L.M.=+^+U.R.'+Z..+w.v.r.j./+(+q     ",
"_+4.4.f.o.r.K.Y.8.q.0.#+,+L.M.=+^+U.R.'+Z..+$+:+p.o.k.<+[+q     ",
"}+4.4.e.k.j.i.8.q.0.#+b.L.M.=+^+U.R.'+Z..+$+:+h.g.f.e.|+[+q     ",
"1+4.4.6.K.Y.8.q.0.#+b.L.M.=+E.U.R.'+Z..+$+:+2+{+/+<+|+3+4+q     ",
"5+6+7+8+9+0+a+c.m.t.b+F.c+d+e+f+g+h+++i+j+;+!+!+(+[+[+4+k+q     ",
"l+m+n+o+p+q+r+s+t+u+v+w+x+y+z+A+B+C+D+q q q q q q q q q q q     ",
"                                                                ",
"                                                                ",
"                                                                ",
"                                                                "};
