/* XPM */
static char * n64cart_xpm[] = {
"16 14 6 1",
" 	c None",
".	c #000000",
"+	c #C0C0C0",
"@	c #808080",
"#	c #808000",
"$	c #008000",
"    .....       ",
"   .++++@..     ",
"  .+++++@@@.    ",
"  .++++++@@@.   ",
"  .++@@@++@@@.  ",
"  .++@@@@++@+.  ",
"  .++@#$@++@+.  ",
"  .++@$.@++@+.  ",
"  .++@@@@++@+.  ",
"  ..@+@@@++@+.  ",
"    ..@+@++@+.  ",
"      ..@++@+.  ",
"        ..@@.   ",
"          ..    "};
