/* XPM */
static char *play_xpm[] = {
/* columns rows colors chars-per-pixel */
"32 32 78 1",
"  c black",
". c #010101",
"X c #040404",
"o c gray2",
"O c #090909",
"+ c #0C0C0C",
"@ c #0E0E0E",
"# c gray6",
"$ c #131313",
"% c gray9",
"& c #191919",
"* c #222222",
"= c #252525",
"- c #313131",
"; c #373737",
": c gray26",
"> c #4C4C4C",
", c #4E4E4E",
"< c #515151",
"1 c gray33",
"2 c #565656",
"3 c #585858",
"4 c #5B5B5B",
"5 c #5D5D5D",
"6 c #5F5F5F",
"7 c #606060",
"8 c gray40",
"9 c #686868",
"0 c gray42",
"q c #6D6D6D",
"w c #6F6F6F",
"e c gray44",
"r c #727272",
"t c #747474",
"y c #777777",
"u c gray47",
"i c #7E7E7E",
"p c gray50",
"a c magenta",
"s c #838383",
"d c gray52",
"f c #868686",
"g c gray53",
"h c #8D8D8D",
"j c #8E8E8E",
"k c gray57",
"l c gray58",
"z c #959595",
"x c #989898",
"c c #9B9B9B",
"v c #9D9D9D",
"b c gray62",
"n c #A4A4A4",
"m c #A5A5A5",
"M c gray66",
"N c #A9A9A9",
"B c #AAAAAA",
"V c #ACACAC",
"C c gray70",
"Z c #B4B4B4",
"A c #B6B6B6",
"S c #B7B7B7",
"D c #BBBBBB",
"F c #BCBCBC",
"G c gray",
"H c #C1C1C1",
"J c gray76",
"K c #C3C3C3",
"L c #C5C5C5",
"P c #C6C6C6",
"I c gray78",
"U c LightGray",
"Y c #DADADA",
"T c gainsboro",
"R c gray88",
"E c #EEEEEE",
"W c #EFEFEF",
"Q c None",
/* pixels */
"QQQQQQQQQQQQQQQQQQQQQQQQQQQQQQQQ",
"QQQQQQQQQQQQQQQQQQQQQQQQQQQQQQQQ",
"QQQQQQQQQQQQQQQQQQQQQQQQQQQQQQQQ",
"QQQQQQQQQ  QQQQQQQQQQQQQQQQQQQQQ",
"QQQQQQQQQ 7oQQQQQQQQQQQQQQQQQQQQ",
"QQQQQQQQQ v5@QQQQQQQQQQQQQQQQQQQ",
"QQQQQQQQQ+Av5%QQQQQQQQQQQQQQQQQQ",
"QQQQQQQQQ+ITH5&QQQQQQQQQQQQQQQQQ",
"QQQQQQQQQ@IWYH5&QQQQQQQQQQQQQQQQ",
"QQQQQQQQQ$AWIYH5&QQQQQQQQQQQQQQQ",
"QQQQQQQQQ=VWIHYH5&QQQQQQQQQQQQQQ",
"QQQQQQQQQ nWANNYH5&QQQQQQQQQQQQQ",
"QQQQQQQQQ vRNjjNTH5&QQQQQQQQQQQQ",
"QQQQQQQQQ lUjffjNTH5&QQQQQQQQQQQ",
"QQQQQQQQQ jIgffsjNTH5$QQQQQQQQQQ",
"QQQQQQQQQ fAfssfgzATH4+QQQQQQQQQ",
"QQQQQQQQQ iMsssgklnB3-+QQQQQQQQQ",
"QQQQQQQQQ tcsfgkxnt3-$QQQQQQQQQQ",
"QQQQQQQQQ wjkkkxnt3-&QQQQQQQQQQQ",
"QQQQQQQQQ 9plkxCt3-&QQQQQQQQQQQQ",
"QQQQQQQQQ-7uzbFt1-&QQQQQQQQQQQQQ",
"QQQQQQQQQ*4rcGt1-&QQQQQQQQQQQQQQ",
"QQQQQQQQQ$2qFr1-&QQQQQQQQQQQQQQQ",
"QQQQQQQQQ@180,-&QQQQQQQQQQQQQQQQ",
"QQQQQQQQQ+>61-%QQQQQQQQQQQQQQQQQ",
"QQQQQQQQQ+:>-%QQQQQQQQQQQQQQQQQQ",
"QQQQQQQQQo;-@QQQQQQQQQQQQQQQQQQQ",
"QQQQQQQQQ -oQQQQQQQQQQQQQQQQQQQQ",
"QQQQQQQQQ  QQQQQQQQQQQQQQQQQQQQQ",
"QQQQQQQQQQQQQQQQQQQQQQQQQQQQQQQQ",
"QQQQQQQQQQQQQQQQQQQQQQQQQQQQQQQQ",
"QQQQQQQQQQQQQQQQQQQQQQQQQQQQQQQQ"
};
