/* XPM */
static char * configure_xpm[] = {
"32 32 280 2",
"  	c None",
". 	c #656565",
"+ 	c #9B9B9B",
"@ 	c #8B8B8B",
"# 	c #AAAAAA",
"$ 	c #565656",
"% 	c #8A1F00",
"& 	c #DA5D2F",
"* 	c #D9693F",
"= 	c #D96A3E",
"- 	c #D96A3F",
"; 	c #DA6A3F",
"> 	c #BF4A1F",
", 	c #E8E8E8",
"' 	c #E9E9E9",
") 	c #818181",
"! 	c #D3D3D3",
"~ 	c #E2E2E2",
"{ 	c #7F7F7F",
"] 	c #D54C1B",
"^ 	c #FCD3B3",
"/ 	c #FDE4C6",
"( 	c #FDE5C4",
"_ 	c #FEE5C4",
": 	c #FDE4C4",
"< 	c #FEE6C8",
"[ 	c #F9B690",
"} 	c #832000",
"| 	c #989898",
"1 	c #A9A9A9",
"2 	c #E4E4E4",
"3 	c #EAEAEA",
"4 	c #6A6A6A",
"5 	c #FBC7A2",
"6 	c #FDDEB4",
"7 	c #FEDFB2",
"8 	c #FEE0B2",
"9 	c #FEDEB2",
"0 	c #FDDEB8",
"a 	c #F29162",
"b 	c #4A4A4A",
"c 	c #DFDFDF",
"d 	c #E7E7E7",
"e 	c #ACACAC",
"f 	c #E6E6E6",
"g 	c #CACACA",
"h 	c #A63F18",
"i 	c #FED7AC",
"j 	c #FED9A4",
"k 	c #FFDAA4",
"l 	c #FDD8A5",
"m 	c #FBC296",
"n 	c #510900",
"o 	c #A6A6A6",
"p 	c #E5E5E5",
"q 	c #AEAEAE",
"r 	c #757575",
"s 	c #A64620",
"t 	c #FDCE98",
"u 	c #FED393",
"v 	c #FFD493",
"w 	c #FED193",
"x 	c #FDC490",
"y 	c #550900",
"z 	c #C1C1C1",
"A 	c #B2B2B2",
"B 	c #414141",
"C 	c #E3E3E3",
"D 	c #B0B0B0",
"E 	c #A6431C",
"F 	c #FEC685",
"G 	c #FECB81",
"H 	c #FFCC81",
"I 	c #FFCB81",
"J 	c #FFCC83",
"K 	c #FDCC84",
"L 	c #FCBB7F",
"M 	c #540A00",
"N 	c #CBCBCB",
"O 	c #C4C4C4",
"P 	c #838383",
"Q 	c #E0E0E0",
"R 	c #E1E1E1",
"S 	c #BBBBBB",
"T 	c #A54018",
"U 	c #FCBD72",
"V 	c #FEC46E",
"W 	c #FFC56E",
"X 	c #FFC46E",
"Y 	c #FFC570",
"Z 	c #FFC56F",
"` 	c #FFB343",
" .	c #FDAC38",
"..	c #F9A150",
"+.	c #540B00",
"@.	c #CECECE",
"#.	c #9F9F9F",
"$.	c #3D3D3D",
"%.	c #666666",
"&.	c #CCCCCC",
"*.	c #BEBEBE",
"=.	c #A53E14",
"-.	c #FBB463",
";.	c #FEBD5F",
">.	c #FFBF5E",
",.	c #FFBF5F",
"'.	c #FFC061",
").	c #FFB241",
"!.	c #FF9900",
"~.	c #FF9800",
"{.	c #FC9400",
"].	c #F47300",
"^.	c #550D00",
"/.	c #C3C3C3",
"(.	c #DEDEDE",
"_.	c #DDDDDD",
":.	c #D9D9D9",
"<.	c #D1D1D1",
"[.	c #A0A0A0",
"}.	c #A43406",
"|.	c #F99728",
"1.	c #FEAB31",
"2.	c #FFAE36",
"3.	c #FFAA2E",
"4.	c #FFA117",
"5.	c #FF9A04",
"6.	c #FF9B08",
"7.	c #FF9C08",
"8.	c #FC9808",
"9.	c #F47907",
"0.	c #DBDBDB",
"a.	c #D7D7D7",
"b.	c #BDBDBD",
"c.	c #939393",
"d.	c #A33202",
"e.	c #F98D12",
"f.	c #FEA013",
"g.	c #FFA114",
"h.	c #FFA115",
"i.	c #FFA116",
"j.	c #FFA215",
"k.	c #FC9E16",
"l.	c #F57E11",
"m.	c #550C00",
"n.	c #8D8D8D",
"o.	c #D5D5D5",
"p.	c #DCDCDC",
"q.	c #DADADA",
"r.	c #CDCDCD",
"s.	c #C9C9C9",
"t.	c #B4B4B4",
"u.	c #5A5A5A",
"v.	c #A43405",
"w.	c #F99623",
"x.	c #FEA727",
"y.	c #FFA927",
"z.	c #FFA827",
"A.	c #FFA928",
"B.	c #FDA526",
"C.	c #F6851E",
"D.	c #D2D2D2",
"E.	c #9D9D9D",
"F.	c #131313",
"G.	c #A43608",
"H.	c #FA9E36",
"I.	c #FEAF3B",
"J.	c #FFB13C",
"K.	c #FFB13B",
"L.	c #FDAD3A",
"M.	c #F78D2F",
"N.	c #707070",
"O.	c #B3B3B3",
"P.	c #C7C7C7",
"Q.	c #454545",
"R.	c #A4380B",
"S.	c #FBA84A",
"T.	c #FEB850",
"U.	c #FFB951",
"V.	c #FFB850",
"W.	c #FDB64F",
"X.	c #F79740",
"Y.	c #550B00",
"Z.	c #8A8A8A",
"`.	c #BFBFBF",
" +	c #606060",
".+	c #A43A0F",
"++	c #FBB15D",
"@+	c #FEC066",
"#+	c #FFC267",
"$+	c #FFC268",
"%+	c #FDBE64",
"&+	c #F8A051",
"*+	c #B1B1B1",
"=+	c #A4350A",
"-+	c #FBB66D",
";+	c #FEC879",
">+	c #FFCB7D",
",+	c #FFCB7E",
"'+	c #FFCA7D",
")+	c #FCC577",
"!+	c #F69D57",
"~+	c #4F0900",
"{+	c #A8A8A8",
"]+	c #CFCFCF",
"^+	c #686868",
"/+	c #F59D5E",
"(+	c #FCCA87",
"_+	c #FED18E",
":+	c #FED18F",
"<+	c #FED28F",
"[+	c #FECF8D",
"}+	c #FBC683",
"|+	c #EB7233",
"1+	c #100000",
"2+	c #D0D0D0",
"3+	c #C0C0C0",
"4+	c #646464",
"5+	c #BB3909",
"6+	c #F7A76C",
"7+	c #FCC78E",
"8+	c #FCCB91",
"9+	c #FBCB92",
"0+	c #FBCB91",
"a+	c #FCCA91",
"b+	c #FDC58B",
"c+	c #F48B4F",
"d+	c #6A1700",
"e+	c #A7A7A7",
"f+	c #6A1600",
"g+	c #AE4217",
"h+	c #CE663B",
"i+	c #D36C3F",
"j+	c #D2693E",
"k+	c #C55B2E",
"l+	c #9B3009",
"m+	c #3F0B00",
"n+	c #D4D4D4",
"o+	c #9CA1A3",
"p+	c #C2C7C9",
"q+	c #B8BDBF",
"r+	c #555A5C",
"s+	c #ABABAB",
"t+	c #D6D6D6",
"u+	c #C6C6C6",
"v+	c #A2A2A2",
"w+	c #BCBCBC",
"x+	c #5C5C5C",
"y+	c #A4A4A4",
"z+	c #C8C8C8",
"A+	c #5B5B5B",
"B+	c #676767",
"C+	c #C5C5C5",
"D+	c #D8D8D8",
"E+	c #B6B6B6",
"F+	c #8F8F8F",
"G+	c #5F5F5F",
"H+	c #B8B8B8",
"I+	c #AFAFAF",
"J+	c #696969",
"K+	c #9A9A9A",
"L+	c #3F3F3F",
"M+	c #BABABA",
"N+	c #2E2E2E",
"O+	c #4C4C4C",
"P+	c #B7B7B7",
"Q+	c #1C1C1C",
"R+	c #5E5E5E",
"S+	c #323232",
"T+	c #111111",
"U+	c #737373",
"V+	c #C2C2C2",
"W+	c #0E0E0E",
"X+	c #EBEBEB",
"Y+	c #999999",
"Z+	c #555555",
"`+	c #272727",
" @	c #8E8E8E",
".@	c #A5A5A5",
"+@	c #A1A1A1",
"@@	c #2D2D2D",
"        . +           @ # $               % & * = - ; >         ",
"      # , ' )         ! ' ~ {           ] ^ / ( _ _ : < [ }     ",
"    | ' ' ' 1         2 ' 3 2 4         5 6 7 8 8 8 7 9 0 a     ",
"  b c , 3 d e         f ' 3 d g       h i j k k k k k k l m n   ",
"  o p , ' f q         2 , ' , p r     s t u v v v v v v w x y   ",
"  z 2 d d 2 A       B ~ f d d C D     E F G H I I I H J K L M   ",
"  N C f f C O       P Q p f p R S     T U V W X X Y Z `  ...+.  ",
"  @.R 2 2 ~ Q #.$.%.&.R C 2 p Q *.    =.-.;.>.,.'.).!.~.{.].^.  ",
"  /.(.~ ~ ~ c _.(.(.(.R :.<.@.O [.    }.|.1.2.3.4.5.6.7.8.9.^.  ",
"  A 0.Q Q Q Q c c Q a.&.&.&.N b.c.    d.e.f.g.g.h.i.i.j.k.l.m.  ",
"  n.o.p.(.(.(.(.q.@.&.&.r.&.s.t.u.    v.w.x.y.z.z.z.z.A.B.C.m.  ",
"    q ! p.p.q.D.N &.r.r.r.g *.E.F.    G.H.I.J.K.K.K.K.J.L.M.m.  ",
"    N.O.P.r.&.&.r.r.r.r.N /.# Q.      R.S.T.U.V.V.V.V.U.W.X.Y.  ",
"      Z.`.N r.r.r.r.r.&.P.t. +        .+++@+#+$+$+$+$+#+%+&+Y.  ",
"        *+s.r.&.&.&.&.r./.c.          =+-+;+>+>+,+,+>+'+)+!+~+  ",
"        {+s.]+]+]+]+]+r.z ^+            /+(+_+:+<+<+:+[+}+|+1+  ",
"        o s.2+]+]+]+2+@.3+4+            5+6+7+8+9+0+a+b+c+d+    ",
"        e+N D.D.D.D.D.2+z 4+              f+g+h+i+j+k+l+m+      ",
"        1 r.n+n+n+n+n+D.O .                   o+p+q+r+          ",
"        s+2+t+o.o.o.t+o.u+.                   v+u+w+x+          ",
"        q ! :.:.:.:.:.a.s.%.                  y+z+3+A+          ",
"        D o.0.q.q.q.0.q.&.B+                  {+r.C+x+          ",
"        A D+(.(.(.(.(.p.2+B+                  q ! @.x+          ",
"        E+0.c _.p._.(.(.n+^+                F+g D+o.*+G+        ",
"        H+_.(.]+I+S p.c t+J+              K+@.q.(._.t+S L+      ",
"        M+c :.B+  N+A Q q.J+              o :.R ~ ~ c @.O+      ",
"        P+R g Q+    @ ~ q.R+              + p.p f f ~ P.S+      ",
"        e R (.^+    t.2 n+$.              J+0.d ' ' 2 I+T+      ",
"        U+p.2 :.E+V+p ~ A W+                g ' X+X+p F+        ",
"          Y+0.2 f p ~ z L+                  I+p ' d p.Z+        ",
"            u.o E+*+) `+                     @.@s+{++@@@        ",
"                                                                "};
