/* XPM */
static char * germany_xpm[] = {
"16 11 4 1",
" 	c None",
".	c #000000",
"+	c #FF0000",
"@	c #FFFF00",
"................",
"................",
"................",
".++++++++++++++.",
".++++++++++++++.",
".++++++++++++++.",
".++++++++++++++.",
".@@@@@@@@@@@@@@.",
".@@@@@@@@@@@@@@.",
".@@@@@@@@@@@@@@.",
"................"};
