/* XPM */
static char * graphics_xpm[] = {
"32 32 730 2",
"  	c None",
". 	c #CACADD",
"+ 	c #D5D5E3",
"@ 	c #D6D5E1",
"# 	c #D6D5E3",
"$ 	c #D5D6E3",
"% 	c #D8D8E6",
"& 	c #8D8DA0",
"* 	c #CFCFDF",
"= 	c #DBDCE8",
"- 	c #C1CAE1",
"; 	c #C2CBE0",
"> 	c #C2CAE1",
", 	c #C4CBE0",
"' 	c #C3CADF",
") 	c #C3CAE1",
"! 	c #C3CBE0",
"~ 	c #C4C9E0",
"{ 	c #C3CAE0",
"] 	c #C3C9E0",
"^ 	c #C4CBE1",
"/ 	c #C5CBE1",
"( 	c #C6CCE2",
"_ 	c #C6CDE2",
": 	c #C6CCE0",
"< 	c #C5CDE1",
"[ 	c #E4E6ED",
"} 	c #D8D8E7",
"| 	c #D0D0DE",
"1 	c #BFC8E0",
"2 	c #9BC5F0",
"3 	c #9CC4EE",
"4 	c #9CC5ED",
"5 	c #9CC3ED",
"6 	c #9CC4ED",
"7 	c #9CC2EC",
"8 	c #9CC3EC",
"9 	c #9CC1EB",
"0 	c #9CC2EB",
"a 	c #9CC0EA",
"b 	c #9CC0E9",
"c 	c #A1C5EB",
"d 	c #A0C3EA",
"e 	c #9EBFE9",
"f 	c #9DBFE8",
"g 	c #9EBEE8",
"h 	c #9EBFE8",
"i 	c #A0C0E9",
"j 	c #A2C4EA",
"k 	c #A4C5EB",
"l 	c #A5C6EB",
"m 	c #A6C7EE",
"n 	c #A9CAF0",
"o 	c #A7C8EC",
"p 	c #A8C9EE",
"q 	c #E9F0F8",
"r 	c #D5D4E3",
"s 	c #D0CFDF",
"t 	c #BDC7DF",
"u 	c #8EBEEB",
"v 	c #91BEEB",
"w 	c #91BCE9",
"x 	c #91BDEA",
"y 	c #91BBE8",
"z 	c #91BBE7",
"A 	c #91B9E6",
"B 	c #91BAE6",
"C 	c #91BAE7",
"D 	c #93B8E5",
"E 	c #92B8E5",
"F 	c #96BBE8",
"G 	c #9BBFE9",
"H 	c #94B9E5",
"I 	c #94B9E6",
"J 	c #95B7E5",
"K 	c #95B8E3",
"L 	c #94B8E4",
"M 	c #96B8E4",
"N 	c #97B7E4",
"O 	c #98B9E4",
"P 	c #97B8E3",
"Q 	c #9CBEE8",
"R 	c #9BBBE6",
"S 	c #9ABCE8",
"T 	c #E4EBF3",
"U 	c #D4D3E2",
"V 	c #CFCEDD",
"W 	c #B9C4DE",
"X 	c #83B6E9",
"Y 	c #87B6E8",
"Z 	c #87B4E6",
"` 	c #87B5E7",
" .	c #87B4E4",
"..	c #87B3E5",
"+.	c #87B2E4",
"@.	c #86B0E2",
"#.	c #88B1E3",
"$.	c #8EB7E6",
"%.	c #90B8E7",
"&.	c #8BB5E5",
"*.	c #89B1E2",
"=.	c #8BB1E3",
"-.	c #8AB0E2",
";.	c #8AAFE1",
">.	c #8AAEE0",
",.	c #8AADDD",
"'.	c #8AADDE",
").	c #89ABDD",
"!.	c #8BABDD",
"~.	c #8CACDD",
"{.	c #8EB1E1",
"].	c #8DAFDF",
"^.	c #8CAEE1",
"/.	c #DFE7F2",
"(.	c #D3D2E2",
"_.	c #CECDDC",
":.	c #B4C0DC",
"<.	c #77ACE5",
"[.	c #7BAEE5",
"}.	c #7BADE4",
"|.	c #7BACE3",
"1.	c #7AABE1",
"2.	c #7AA9E2",
"3.	c #79AAE1",
"4.	c #7BA9E0",
"5.	c #7AA7DE",
"6.	c #7CAAE0",
"7.	c #82AFE3",
"8.	c #83AFE3",
"9.	c #84AFE3",
"0.	c #7DA9DF",
"a.	c #7EAAE0",
"b.	c #7EA9DF",
"c.	c #7EA7DE",
"d.	c #7DA5DA",
"e.	c #7CA3DA",
"f.	c #7CA1D8",
"g.	c #7CA0D5",
"h.	c #7C9ED4",
"i.	c #7D9ED4",
"j.	c #7CA1D5",
"k.	c #7FA3D9",
"l.	c #80A2D8",
"m.	c #7CA1D9",
"n.	c #DBE2EF",
"o.	c #D2D2E1",
"p.	c #CDCCDD",
"q.	c #B2BEDB",
"r.	c #6DA5E3",
"s.	c #6FA6E1",
"t.	c #6FA5E1",
"u.	c #6DA3DF",
"v.	c #6EA2DE",
"w.	c #6EA2DD",
"x.	c #70A1DC",
"y.	c #6FA0DC",
"z.	c #74A4DE",
"A.	c #79A9E1",
"B.	c #7AAAE1",
"C.	c #79A7DF",
"D.	c #73A2DC",
"E.	c #72A0DC",
"F.	c #709FD9",
"G.	c #709CD8",
"H.	c #6D99D4",
"I.	c #6C95D3",
"J.	c #6C93CF",
"K.	c #6C92CE",
"L.	c #6C93CD",
"M.	c #6E93CD",
"N.	c #6F92CE",
"O.	c #7095D1",
"P.	c #7196D2",
"Q.	c #6B93D1",
"R.	c #D6DFEE",
"S.	c #D1D1E0",
"T.	c #CDCBDC",
"U.	c #96ACD5",
"V.	c #0F6CD0",
"W.	c #317FD5",
"X.	c #3982D3",
"Y.	c #3B82D4",
"Z.	c #3980D2",
"`.	c #337ACE",
" +	c #2971CA",
".+	c #2974CD",
"++	c #2673CE",
"@+	c #2271CC",
"#+	c #1D6AC9",
"$+	c #236FCC",
"%+	c #2B72CA",
"&+	c #4580CE",
"*+	c #6597D7",
"=+	c #6796D6",
"-+	c #6390D1",
";+	c #5F8CCF",
">+	c #5E8BCB",
",+	c #5E88C9",
"'+	c #5E86C8",
")+	c #5E87C6",
"!+	c #6087C8",
"~+	c #6186C7",
"{+	c #6288C7",
"]+	c #5C82C6",
"^+	c #D1D9E9",
"/+	c #D1D0E1",
"(+	c #CCCADB",
"_+	c #96ACD4",
":+	c #005CC9",
"<+	c #005EC9",
"[+	c #005AC5",
"}+	c #0059C5",
"|+	c #0057C1",
"1+	c #0054C0",
"2+	c #035CC4",
"3+	c #0F64C9",
"4+	c #0F61C7",
"5+	c #0E5FC5",
"6+	c #1060C4",
"7+	c #1765C8",
"8+	c #0F5DC2",
"9+	c #0C5BBE",
"0+	c #0E5ABE",
"a+	c #3673C6",
"b+	c #5A8ACE",
"c+	c #5584C8",
"d+	c #537FC7",
"e+	c #527FC5",
"f+	c #517CC2",
"g+	c #527BC1",
"h+	c #507AC1",
"i+	c #507BBF",
"j+	c #5179C1",
"k+	c #527BC2",
"l+	c #4C75BF",
"m+	c #CDD6E8",
"n+	c #CECEE0",
"o+	c #CBC9DA",
"p+	c #95AAD3",
"q+	c #005CCA",
"r+	c #005FC7",
"s+	c #005BC6",
"t+	c #0059C4",
"u+	c #0058C1",
"v+	c #065CC3",
"w+	c #1265C9",
"x+	c #1064C8",
"y+	c #1161C4",
"z+	c #1262C4",
"A+	c #1563C5",
"B+	c #1C67C8",
"C+	c #1560C1",
"D+	c #165DC0",
"E+	c #1156B9",
"F+	c #1756B7",
"G+	c #4677C3",
"H+	c #4B78C2",
"I+	c #4776BF",
"J+	c #4572BD",
"K+	c #4672BD",
"L+	c #4370BA",
"M+	c #446DB9",
"N+	c #436DB9",
"O+	c #466DB9",
"P+	c #3E69B8",
"Q+	c #C8D1E5",
"R+	c #CECDDF",
"S+	c #CAC8D9",
"T+	c #94A9D1",
"U+	c #015BC4",
"V+	c #0359C2",
"W+	c #1367CA",
"X+	c #1365C7",
"Y+	c #1262C7",
"Z+	c #1463C4",
"`+	c #1765C4",
" @	c #1E68C7",
".@	c #2069C6",
"+@	c #1A62C1",
"@@	c #1E63C1",
"#@	c #1E61BF",
"$@	c #195CBB",
"%@	c #1553B5",
"&@	c #0E4CAF",
"*@	c #3265B8",
"=@	c #416FBC",
"-@	c #3B6CBA",
";@	c #3A67B6",
">@	c #3864B4",
",@	c #3663B5",
"'@	c #3662B3",
")@	c #3663B4",
"!@	c #2E5BB0",
"~@	c #C3CDE2",
"{@	c #CDCCDE",
"]@	c #C9C7D9",
"^@	c #92A7D3",
"/@	c #005ECC",
"(@	c #025EC8",
"_@	c #015CC4",
":@	c #035AC3",
"<@	c #1367C9",
"[@	c #1264C9",
"}@	c #1364C6",
"|@	c #1665C5",
"1@	c #1A66C5",
"2@	c #1F69C7",
"3@	c #256CC8",
"4@	c #256BC6",
"5@	c #2265C1",
"6@	c #2566C0",
"7@	c #2565C0",
"8@	c #2260BC",
"9@	c #1D5AB7",
"0@	c #1853B0",
"a@	c #114CAB",
"b@	c #2055B0",
"c@	c #3665B6",
"d@	c #3361B2",
"e@	c #2F5DB2",
"f@	c #2D5BAF",
"g@	c #2B59AE",
"h@	c #2957AD",
"i@	c #2151AA",
"j@	c #C0C8E0",
"k@	c #CCCBDE",
"l@	c #C7C5D8",
"m@	c #91A7D2",
"n@	c #0061D3",
"o@	c #0661CC",
"p@	c #0762CB",
"q@	c #1468CA",
"r@	c #1565C7",
"s@	c #1967C6",
"t@	c #1E69C6",
"u@	c #256DC9",
"v@	c #2A70C8",
"w@	c #2E71C9",
"x@	c #2A6CC5",
"y@	c #2766C3",
"z@	c #2A66C3",
"A@	c #2D68C0",
"B@	c #2965BD",
"C@	c #275EB9",
"D@	c #2059B1",
"E@	c #1D52B0",
"F@	c #174FAB",
"G@	c #164BA8",
"H@	c #2455AE",
"I@	c #2A57AD",
"J@	c #2655AA",
"K@	c #2252AB",
"L@	c #204FA9",
"M@	c #1444A3",
"N@	c #BBC4DD",
"O@	c #CACBDD",
"P@	c #C6C4D7",
"Q@	c #92A7D2",
"R@	c #0568D8",
"S@	c #0862D2",
"T@	c #2481DF",
"U@	c #1B6ED2",
"V@	c #1968C9",
"W@	c #226CC9",
"X@	c #2E73CB",
"Y@	c #3273CB",
"Z@	c #3170CE",
"`@	c #4788B3",
" #	c #6FABA8",
".#	c #4D8FAA",
"+#	c #3066C2",
"@#	c #346CBF",
"##	c #3066BB",
"$#	c #285DB4",
"%#	c #2559B0",
"&#	c #2154AC",
"*#	c #1B4EAB",
"=#	c #1648A6",
"-#	c #1345A4",
";#	c #1546A4",
">#	c #1445A5",
",#	c #1443A3",
"'#	c #093B9D",
")#	c #B8C2DB",
"!#	c #C9C8DC",
"~#	c #C5C3D7",
"{#	c #92A8D3",
"]#	c #0C75DE",
"^#	c #0F71DA",
"/#	c #4DA9EF",
"(#	c #1F7ADB",
"_#	c #2270D3",
":#	c #2772D1",
"<#	c #2C73D2",
"[#	c #3177D2",
"}#	c #3679D2",
"|#	c #3875D4",
"1#	c #63A7A2",
"2#	c #85B49E",
"3#	c #789EBA",
"4#	c #73A6A5",
"5#	c #74B88D",
"6#	c #3B6CC6",
"7#	c #3A6CBC",
"8#	c #3163B7",
"9#	c #2D5DB2",
"0#	c #2757AE",
"a#	c #2452AB",
"b#	c #1E4DA9",
"c#	c #1748A5",
"d#	c #1143A2",
"e#	c #0C3C9F",
"f#	c #05399C",
"g#	c #002C95",
"h#	c #B1BCD9",
"i#	c #C8C8DC",
"j#	c #C4C2D6",
"k#	c #92A8D2",
"l#	c #147EE3",
"m#	c #258AE4",
"n#	c #61BAF3",
"o#	c #3192E7",
"p#	c #2D83DD",
"q#	c #3382DD",
"r#	c #448AD0",
"s#	c #4788CF",
"t#	c #3D7DD7",
"u#	c #3B7CC7",
"v#	c #64AA6F",
"w#	c #7194E1",
"x#	c #AECCF9",
"y#	c #97B4F5",
"z#	c #54A08E",
"A#	c #317990",
"B#	c #3C6EC7",
"C#	c #3667BE",
"D#	c #3060B7",
"E#	c #2E5DB1",
"F#	c #2A57AE",
"G#	c #2453A9",
"H#	c #1C4BA8",
"I#	c #1545A3",
"J#	c #1141A1",
"K#	c #0A3C9C",
"L#	c #002D95",
"M#	c #B6C4DF",
"N#	c #C7C6DB",
"O#	c #C2C1D4",
"P#	c #97ADD3",
"Q#	c #278EE6",
"R#	c #318FE5",
"S#	c #62B6F0",
"T#	c #58B2F2",
"U#	c #4099E8",
"V#	c #4197D1",
"W#	c #378389",
"X#	c #2E8879",
"Y#	c #3E81D1",
"Z#	c #3485AB",
"`#	c #3F9761",
" $	c #618ADB",
".$	c #80AEF1",
"+$	c #81AFF4",
"@$	c #719CF7",
"#$	c #4072C0",
"$$	c #C6D09A",
"%$	c #A8B4A2",
"&$	c #819998",
"*$	c #3866B9",
"=$	c #2F5CB0",
"-$	c #2656AE",
";$	c #234FA8",
">$	c #1B49A4",
",$	c #1444A0",
"'$	c #0E3C9C",
")$	c #063CA8",
"!$	c #B7C4E0",
"~$	c #C6C5D9",
"{$	c #C1BFD5",
"]$	c #9BB0D4",
"^$	c #48A8F2",
"/$	c #3D9BE9",
"($	c #439EEA",
"_$	c #77A9D9",
":$	c #638DD0",
"<$	c #5F9FCE",
"[$	c #389379",
"}$	c #62AC6E",
"|$	c #85A1D4",
"1$	c #5284CD",
"2$	c #4FB255",
"3$	c #6A8FDC",
"4$	c #99BAF8",
"5$	c #6283D3",
"6$	c #49A151",
"7$	c #3B87B8",
"8$	c #F8E387",
"9$	c #FFED9F",
"0$	c #FFEE8F",
"a$	c #6986A7",
"b$	c #3F61A8",
"c$	c #606789",
"d$	c #2250AE",
"e$	c #2250AB",
"f$	c #1641A0",
"g$	c #1240A7",
"h$	c #012F9D",
"i$	c #B4C1DE",
"j$	c #C5C4DA",
"k$	c #BFBED3",
"l$	c #ADB8D9",
"m$	c #7BC7A4",
"n$	c #88B5E7",
"o$	c #739FCD",
"p$	c #78A8D8",
"q$	c #8299CB",
"r$	c #5994D5",
"s$	c #6192D7",
"t$	c #CFC6C4",
"u$	c #CFC9D2",
"v$	c #6A97D2",
"w$	c #4892B9",
"x$	c #6DB776",
"y$	c #76AC8E",
"z$	c #75BF76",
"A$	c #3F8692",
"B$	c #3F8DEB",
"C$	c #F9CE40",
"D$	c #F0CA31",
"E$	c #B8AE48",
"F$	c #387FDC",
"G$	c #5170BB",
"H$	c #968993",
"I$	c #518FDB",
"J$	c #C2B89F",
"K$	c #618FC9",
"L$	c #5994DB",
"M$	c #648FC9",
"N$	c #C2D0E7",
"O$	c #C3C2D8",
"P$	c #BDBDD4",
"Q$	c #C3C6DA",
"R$	c #E9F2FA",
"S$	c #A8CDED",
"T$	c #9CCAEE",
"U$	c #A5D1F1",
"V$	c #C6E1ED",
"W$	c #A6D8F6",
"X$	c #99C7EA",
"Y$	c #AACBE7",
"Z$	c #A6C7E4",
"`$	c #95C2E8",
" %	c #8FC1F2",
".%	c #84B7EB",
"+%	c #76A8C7",
"@%	c #71A0D8",
"#%	c #7BABE8",
"$%	c #78ACE5",
"%%	c #89A8C1",
"&%	c #6FA5E9",
"*%	c #71A8EE",
"=%	c #7AAFE6",
"-%	c #6A95DE",
";%	c #5D84DD",
">%	c #73A4E1",
",%	c #82A8DB",
"'%	c #75AAE5",
")%	c #76A4DD",
"!%	c #7FA3D3",
"~%	c #C9D2E7",
"{%	c #C4C2D8",
"]%	c #B0B0C8",
"^%	c #CCCCDF",
"/%	c #C9C9DD",
"(%	c #CDCADC",
"_%	c #CAC7D8",
":%	c #C6C4D6",
"<%	c #C7C5D5",
"[%	c #C9C6D5",
"}%	c #C6C6D5",
"|%	c #C7C6D6",
"1%	c #C7C6D5",
"2%	c #C7C4D4",
"3%	c #CFCCD7",
"4%	c #D6D3DC",
"5%	c #CECDD6",
"6%	c #C9C7D8",
"7%	c #CAC7D6",
"8%	c #CAC7D5",
"9%	c #CBC9D6",
"0%	c #CCCAD7",
"a%	c #BFC7C8",
"b%	c #B2C7B9",
"c%	c #D0CDDD",
"d%	c #D0CDDF",
"e%	c #CFCDDF",
"f%	c #CDCDE0",
"g%	c #ACACC2",
"h%	c #2D2D36",
"i%	c #2E2E37",
"j%	c #373740",
"k%	c #686876",
"l%	c #9A99AE",
"m%	c #BFBFD5",
"n%	c #CACAE0",
"o%	c #C9C9DF",
"p%	c #CACADF",
"q%	c #C7C9DC",
"r%	c #C7C7DA",
"s%	c #C7C7D9",
"t%	c #C6C6D8",
"u%	c #C6C6D3",
"v%	c #C8C8D5",
"w%	c #C9C9DC",
"x%	c #CACAE1",
"y%	c #BEBED5",
"z%	c #9D9CB0",
"A%	c #696979",
"B%	c #393941",
"C%	c #2E2E36",
"D%	c #2F2F38",
"E%	c #26262D",
"F%	c #525261",
"G%	c #676778",
"H%	c #7C7C8E",
"I%	c #878799",
"J%	c #9292A1",
"K%	c #9191A1",
"L%	c #9090A0",
"M%	c #868698",
"N%	c #7C7C8D",
"O%	c #6A6A79",
"P%	c #525260",
"Q%	c #2B2B33",
"R%	c #BDBDCA",
"S%	c #E5E5EE",
"T%	c #E8E8ED",
"U%	c #EAEBEB",
"V%	c #E8E8E9",
"W%	c #D1D1DA",
"X%	c #CFCFD7",
"Y%	c #CECFD8",
"Z%	c #CFCFD8",
"`%	c #D0D0D8",
" &	c #E7E7E7",
".&	c #E7E7EA",
"+&	c #E3E3EC",
"@&	c #CBCBD7",
"#&	c #90909C",
"$&	c #C0C0D1",
"%&	c #ECECF4",
"&&	c #EFEFF2",
"*&	c #EBEBF0",
"=&	c #E9E9ED",
"-&	c #E8E7ED",
";&	c #E9E9EE",
">&	c #D3D3E1",
",&	c #D5D5E1",
"'&	c #D6D6E1",
")&	c #D4D4E1",
"!&	c #E8E8EC",
"~&	c #EAEAED",
"{&	c #EEEEF2",
"]&	c #EFEFF5",
"^&	c #D3D3E3",
"/&	c #CBCBDB",
"(&	c #E5E5EC",
"_&	c #E0E0E8",
":&	c #DFE1E8",
"<&	c #DFDFE8",
"[&	c #DFE0E8",
"}&	c #E1E1E8",
"|&	c #CBCBDA",
"1&	c #CFCFDE",
"2&	c #D1D0DE",
"3&	c #CBCBDC",
"4&	c #E2E2E9",
"5&	c #E8E8F6",
"6&	c #D1D3E4",
"7&	c #DAD9E3",
"8&	c #D9D9E3",
"9&	c #D9D9E2",
"0&	c #DADAE3",
"a&	c #C3C3D7",
"b&	c #CBCCDB",
"c&	c #CCCCDB",
"d&	c #C4C4D7",
"e&	c #E0E0EC",
"f&	c #C3C3DD",
"g&	c #CECEDD",
"h&	c #D1D1DE",
"i&	c #D1D1DF",
"j&	c #D1D1DD",
"k&	c #D0D0DF",
"l&	c #D0D0DD",
"m&	c #C2C2D6",
"n&	c #C8C8D9",
"o&	c #D2D1DE",
"p&	c #CDCFDD",
"q&	c #D0D0E6",
"r&	c #BBBBD1",
"s&	c #CECEE2",
"t&	c #C6C6D9",
"u&	c #CACADA",
"v&	c #CBCBD9",
"w&	c #C9C9DA",
"x&	c #C7C7D8",
"y&	c #C8C8DB",
"z&	c #494954",
"A&	c #474751",
"B&	c #9595A7",
"C&	c #C7C7DE",
"D&	c #CACBE0",
"E&	c #C9C9DE",
"F&	c #C7C5DA",
"G&	c #C7C7DB",
"H&	c #CBCBE2",
"I&	c #A3A3B8",
"J&	c #5A5A68",
"K&	c #44444F",
"L&	c #5F5F6D",
"M&	c #787889",
"N&	c #858596",
"O&	c #8C8C9E",
"P&	c #8E8EA0",
"Q&	c #8D8D9F",
"R&	c #7B7B8C",
"S&	c #666676",
"T&	c #484854",
"U&	c #28282E",
". + @ # @ # @ @ # # # # # # # # # # # # # # $ + + + + + + % &   ",
"* = - ; > > > > > > > > > ; , ' ) ! ~ { ] ! ^ / / ( _ : < [ }   ",
"| 1 2 3 4 5 6 7 8 9 9 9 0 a b c d e f g h i j k l m n o p q r   ",
"s t u v w x y w z A B C D E F G H I J K L M N O P O Q R S T U   ",
"V W X Y Z ` Z  ...+.+.@.#.$.%.&.*.=.-.;.>.,.'.).!.~.{.].^./.(.  ",
"_.:.<.[.}.|.1.2.3.4.5.6.7.8.9.0.a.b.c.d.e.f.g.h.i.j.k.l.m.n.o.  ",
"p.q.r.s.t.u.v.w.x.y.z.A.B.4.C.D.E.F.G.H.I.J.K.L.M.N.O.P.Q.R.S.  ",
"T.U.V.W.X.Y.Z.`. +.+++@+#+$+%+&+*+=+-+;+>+,+,+'+)+!+~+{+]+^+/+  ",
"(+_+:+<+[+}+|+1+2+3+4+5+6+7+8+9+0+a+b+c+d+e+f+g+h+i+j+k+l+m+n+  ",
"o+p+q+r+s+t+u+v+w+x+y+z+A+B+C+C+D+E+F+G+H+I+J+K+L+M+N+O+P+Q+R+  ",
"S+T+q+r+U+u+V+W+X+Y+Z+`+ @.@+@@@#@$@%@&@*@=@-@;@>@,@'@)@!@~@{@  ",
"]@^@/@(@_@:@<@[@}@|@1@2@3@4@5@6@7@8@9@0@a@b@c@d@e@f@g@h@i@j@k@  ",
"l@m@n@o@p@q@q@r@s@t@u@v@w@x@y@z@A@B@C@D@E@F@G@H@I@J@K@L@M@N@O@  ",
"P@Q@R@S@T@U@V@#+W@ +X@Y@Z@`@ #.#+#@###$#%#&#*#=#-#;#>#,#'#)#!#  ",
"~#{#]#^#/#(#_#:#<#[#}#|#1#2#3#4#5#6#7#8#9#0#a#b#c#d#e#f#g#h#i#  ",
"j#k#l#m#n#o#p#q#r#s#t#u#v#w#x#y#z#A#B#C#D#E#F#G#H#I#J#K#L#M#N#  ",
"O#P#Q#R#S#T#U#V#W#X#Y#Z#`# $.$+$@$#$$$%$&$*$=$-$;$>$,$'$)$!$~$  ",
"{$]$^$/$($_$:$<$[$}$|$1$2$3$4$5$6$7$8$9$0$a$b$c$d$e$f$g$h$i$j$  ",
"k$l$m$n$o$p$q$r$s$t$u$v$w$x$y$z$A$B$C$D$E$F$G$H$I$J$K$L$M$N$O$  ",
"P$Q$R$S$T$U$V$W$X$Y$Z$`$ %.%+%@%#%$%%%&%*%=%-%;%>%,%'%)%!%~%{%  ",
"]%^%/%(%(+_%:%<%[%}%|%1%[%2%3%4%5%2%6%7%8%7%9%0%a%b%c%d%e%f%g%  ",
"  h%i%j%k%l%m%n%o%p%q%r%s%t%u%v%}%t%s%r%w%/%o%x%y%z%A%B%C%D%    ",
"                  E%F%G%H%I%J%K%L%M%N%O%P%Q%                    ",
"                R%S%T%U%V%W%X%Y%Z%`% &V%.&+&@&#&                ",
"          $&%&&&*&=&T%-&;&>&,&'&@ )&;&!&!&;&~&{&]&^&            ",
"        /&(&_&:&<&<&<&[&}&|&| 1&2&3&}&<&<&<&<&<&_&4&5&          ",
"        6&7&8&9&8&9&9&8&0&a&b&c&c&d&0&9&8&8&9&8&8&8&e&          ",
"        f&g&h&i&j&k&k&l&i&s%m&d&m&n&i&k&l&l&i&j&o&p&q&          ",
"          r&s&3&t&u&v&v&v&/&u&w&u&|&/&v&/&u&x&y&f%o%z&          ",
"            A&B&C&D&E&/%y&r%r%F&r%r%G&w%E&p%H&I&J&              ",
"                    K&L&M&N&O&P&Q&M%R&S&T&U&                    ",
"                                                                "};
