/* XPM */
static char * input_xpm[] = {
"32 32 347 2",
"  	c None",
". 	c #757FBA",
"+ 	c #A3AACE",
"@ 	c #626AA4",
"# 	c #8995CA",
"$ 	c #8A94C4",
"% 	c #5A6196",
"& 	c #7B8ACD",
"* 	c #7C89C7",
"= 	c #7D88C0",
"- 	c #545C8C",
"; 	c #8090D5",
"> 	c #8694D1",
", 	c #7885C0",
"' 	c #8B9CDF",
") 	c #7E8ED2",
"! 	c #6E7BB8",
"~ 	c #899BE3",
"{ 	c #9BACE5",
"] 	c #7280BD",
"^ 	c #A2B5ED",
"/ 	c #8898D6",
"( 	c #727EBE",
"_ 	c #8A9CE5",
": 	c #BCCFF7",
"< 	c #7685C5",
"[ 	c #7683C5",
"} 	c #7582C2",
"| 	c #7380C0",
"1 	c #8F9BCE",
"2 	c #7F8AC3",
"3 	c #6E7AB7",
"4 	c #AEC0EF",
"5 	c #8695D2",
"6 	c #6976AF",
"7 	c #7987C9",
"8 	c #7785C6",
"9 	c #98A4D7",
"0 	c #BAC6E8",
"a 	c #E6F0FF",
"b 	c #E8F1FF",
"c 	c #E3EBFB",
"d 	c #959FCD",
"e 	c #6B76B2",
"f 	c #8698DE",
"g 	c #8A9BDA",
"h 	c #9FAFE0",
"i 	c #7683C4",
"j 	c #7A89CB",
"k 	c #808FCE",
"l 	c #A5B3E0",
"m 	c #CDDCF8",
"n 	c #CBE0FF",
"o 	c #D9E8FF",
"p 	c #E7F0FF",
"q 	c #E9F2FF",
"r 	c #EBF3FF",
"s 	c #EDF4FF",
"t 	c #9CA6D0",
"u 	c #6A74B1",
"v 	c #91A4E6",
"w 	c #A2B6E9",
"x 	c #8393D4",
"y 	c #8897D5",
"z 	c #B1C0E9",
"A 	c #D7E5FC",
"B 	c #D3E5FF",
"C 	c #C8D1FF",
"D 	c #AFAFFF",
"E 	c #9DA2FF",
"F 	c #E5EFFF",
"G 	c #D3E6FA",
"H 	c #BADBE7",
"I 	c #D6E8F7",
"J 	c #EFF5FF",
"K 	c #9CA4CD",
"L 	c #6871AD",
"M 	c #8698DF",
"N 	c #8192D7",
"O 	c #8A9AD9",
"P 	c #B6C6EE",
"Q 	c #DAE9FF",
"R 	c #DCEAFF",
"S 	c #DEEBFF",
"T 	c #D2E0FF",
"U 	c #8888FF",
"V 	c #6767FF",
"W 	c #B8BDFF",
"X 	c #CAE1F7",
"Y 	c #A5DCAA",
"Z 	c #66C566",
"` 	c #88CF99",
" .	c #EFF6FF",
"..	c #F1F7FF",
"+.	c #9CA3CB",
"@.	c #646EA8",
"#.	c #8596DD",
"$.	c #8394DA",
"%.	c #8C9DDD",
"&.	c #B5C6EF",
"*.	c #D6E7FF",
"=.	c #D8E8FF",
"-.	c #D8E7FF",
";.	c #C9DFFF",
">.	c #D5E6FF",
",.	c #EAF3FF",
"'.	c #C7E3E7",
").	c #5FC263",
"!.	c #5EC261",
"~.	c #D1EADF",
"{.	c #F0F6FF",
"].	c #F2F7FF",
"^.	c #F4F8FF",
"/.	c #8991BE",
"(.	c #60679F",
"_.	c #899BDE",
":.	c #AABCEC",
"<.	c #CEDFFD",
"[.	c #D7E7FF",
"}.	c #DBE9FF",
"|.	c #D4E5FF",
"1.	c #EDCABA",
"2.	c #FFA770",
"3.	c #F1A072",
"4.	c #D6E5F8",
"5.	c #E5E5D2",
"6.	c #DFE9F5",
"7.	c #EEF5FF",
"8.	c #EDF1FA",
"9.	c #6C74AB",
"0.	c #575E91",
"a.	c #8799E0",
"b.	c #A1B3EA",
"c.	c #C4D9FD",
"d.	c #C6DDFF",
"e.	c #C5DCFF",
"f.	c #CFE2FF",
"g.	c #D1E3FF",
"h.	c #FD8A44",
"i.	c #FF690B",
"j.	c #F4BEA0",
"k.	c #DAE4E9",
"l.	c #FFE794",
"m.	c #FFD33F",
"n.	c #EDE3B5",
"o.	c #F1F6FF",
"p.	c #F3F8FF",
"q.	c #F5F9FF",
"r.	c #F7FAFF",
"s.	c #C9CEE3",
"t.	c #95A8E8",
"u.	c #B5CBF7",
"v.	c #97A4B8",
"w.	c #A2A6AC",
"x.	c #A9A9A9",
"y.	c #A0A0A0",
"z.	c #8C9094",
"A.	c #A5B1C4",
"B.	c #DBEAFF",
"C.	c #DDEBFF",
"D.	c #E3EEFF",
"E.	c #E9F1FF",
"F.	c #E2E5DA",
"G.	c #FBD657",
"H.	c #F9DF80",
"I.	c #F9FBFF",
"J.	c #888FBB",
"K.	c #5C639A",
"L.	c #8B9EE6",
"M.	c #A7BCF2",
"N.	c #BCD3F5",
"O.	c #878D97",
"P.	c #D0D0D0",
"Q.	c #B5B5B5",
"R.	c #C6C6C6",
"S.	c #B8B8B8",
"T.	c #979797",
"U.	c #818181",
"V.	c #C8D4E5",
"W.	c #E0ECFF",
"X.	c #E2EDFF",
"Y.	c #E4EFFF",
"Z.	c #EAF2FF",
"`.	c #E4EEFF",
" +	c #DEE1EE",
".+	c #8C9FE8",
"++	c #99B2F1",
"@+	c #BBD6FF",
"#+	c #90A1B9",
"$+	c #CECECE",
"%+	c #D1D1D1",
"&+	c #C2C2C2",
"*+	c #B4B4B4",
"=+	c #A5A5A5",
"-+	c #8C8C8C",
";+	c #888888",
">+	c #CCD4E1",
",+	c #E2EEFF",
"'+	c #DFECFF",
")+	c #D0E3FF",
"!+	c #CADFFF",
"~+	c #CCE0FF",
"{+	c #D6E3FA",
"]+	c #F6F9FF",
"^+	c #F8FBFF",
"/+	c #FAFCFF",
"(+	c #FCFDFF",
"_+	c #9CA2C6",
":+	c #5F679F",
"<+	c #97AFEF",
"[+	c #B5D3FF",
"}+	c #777E88",
"|+	c #C7C7C7",
"1+	c #B9B9B9",
"2+	c #B0B0B0",
"3+	c #A1A1A1",
"4+	c #8E8E8E",
"5+	c #838383",
"6+	c #8D8D8E",
"7+	c #D9E3F2",
"8+	c #DDEAFF",
"9+	c #DFEBFF",
"0+	c #E1EDFF",
"a+	c #C4DBFF",
"b+	c #C6DCFF",
"c+	c #B0C3EC",
"d+	c #828EC4",
"e+	c #6E79B3",
"f+	c #AEBBE0",
"g+	c #F6FAFF",
"h+	c #F9FCFF",
"i+	c #CFDCF4",
"j+	c #8A9DE6",
"k+	c #92A8EB",
"l+	c #AECEFF",
"m+	c #9BA6B6",
"n+	c #A4A4A4",
"o+	c #A2A2A2",
"p+	c #9D9D9D",
"q+	c #707070",
"r+	c #858585",
"s+	c #D1D5DB",
"t+	c #D2E4FF",
"u+	c #BED8FF",
"v+	c #BFD9FF",
"w+	c #ACC2ED",
"x+	c #8290C7",
"y+	c #6B75B2",
"z+	c #626CA5",
"A+	c #5D659B",
"B+	c #666FAA",
"C+	c #8E9AC9",
"D+	c #D9E5F9",
"E+	c #E5F0FF",
"F+	c #D5E5FF",
"G+	c #6972AA",
"H+	c #494F7B",
"I+	c #8B9EE5",
"J+	c #ACCDFF",
"K+	c #C7DDFF",
"L+	c #B1B9C4",
"M+	c #A0A2A4",
"N+	c #959595",
"O+	c #9B9C9C",
"P+	c #B9BBBE",
"Q+	c #DEE7F4",
"R+	c #C9DEFF",
"S+	c #B8D4FF",
"T+	c #B9D5FF",
"U+	c #A9C0EE",
"V+	c #8392CB",
"W+	c #6E79B7",
"X+	c #6570A9",
"Y+	c #636BA5",
"Z+	c #7681B6",
"`+	c #B9CBEE",
" @	c #CEE2FF",
".@	c #A1AFD7",
"+@	c #889AE2",
"@@	c #AACAFD",
"#@	c #BCD7FF",
"$@	c #DAE8FF",
"%@	c #D6E6FF",
"&@	c #B0CFFF",
"*@	c #B1D0FF",
"=@	c #B3D1FF",
"-@	c #9DB3E7",
";@	c #7F8ECA",
">@	c #707CBB",
",@	c #6872AD",
"'@	c #5C649A",
")@	c #7D88BB",
"!@	c #7079AF",
"~@	c #889AE1",
"{@	c #A0BDF5",
"]@	c #B2D1FF",
"^@	c #D3E4FF",
"/@	c #CDE1FF",
"(@	c #A6C5F8",
"_@	c #92A9E2",
":@	c #7886C6",
"<@	c #737FBF",
"[@	c #6671A9",
"}@	c #525989",
"|@	c #4E5483",
"1@	c #94ABEA",
"2@	c #CBDFFF",
"3@	c #8FA5E0",
"4@	c #5C679A",
"5@	c #879ADF",
"6@	c #C0D9FF",
"7@	c #8598D5",
"8@	c #6773AC",
"9@	c #8496DC",
"0@	c #9DB8F1",
"a@	c #8597D5",
"b@	c #5E699D",
"c@	c #8293D8",
"d@	c #8DA2E2",
"e@	c #8497D4",
"f@	c #636DA4",
"g@	c #8292D8",
"h@	c #A1BEF5",
"i@	c #BDD7FF",
"j@	c #8496D3",
"k@	c #626DA3",
"l@	c #7F8FD3",
"m@	c #889BDC",
"n@	c #CEE1FF",
"o@	c #B5D2FF",
"p@	c #8396D3",
"q@	c #95ADE8",
"r@	c #B4D2FF",
"s@	c #8090CF",
"t@	c #616CA2",
"u@	c #7B8BCD",
"v@	c #7D8CD0",
"w@	c #97B0E9",
"x@	c #A9C9FC",
"y@	c #9CB7EE",
"z@	c #8496D4",
"A@	c #7582C3",
"B@	c #7381C0",
"C@	c #7B89CC",
"D@	c #7987CA",
"E@	c #7785C7",
"F@	c #6C79B5",
"                              . + @                             ",
"                            # $ %                               ",
"                        & * = -                                 ",
"                      ; > ,                                     ",
"                    ' ) !                                       ",
"                  ~ { ]                                         ",
"                  ^ /                   (                       ",
"                _ : <             [ } | 1 2 3                   ",
"                  4 5 6       7 8 9 0 a b c d e                 ",
"                  f g h i j k l m n o p q r s t u               ",
"                  v w x y z A B C D E F G H I J K L             ",
"                M N O P Q R S T U V W X Y Z `  ...+.@.          ",
"            #.$.%.&.*.=.Q R -.;.>.,.a '.).!.~.{.].^./.(.        ",
"          M _.:.<.>.[.o }.|.1.2.3.Q 4.5.6.s 7.{.].^.8.9.0.      ",
"      ~ a.b.c.d.e.f.[.o }.g.h.i.j.k.l.m.n.s J o.p.q.r.s.@       ",
"    _ t.u.v.w.x.y.z.A.o B.C.D.E.F F.G.H.s s J ..p.q.r.I.J.K.    ",
"  L.M.N.O.P.Q.R.S.T.U.V.R S W.X.Y.a b Z.`.D. ...p.q.r.I. +@     ",
".+++@+#+$+%+&+*+=+-+;+>+R S W.,+Y.a '+)+!+~+{+].^.]+^+/+(+_+:+  ",
"L.<+[+}+|+1+2+3+4+5+6+7+8+9+0+,+}.n a+b+c+d+e+f+ .g+^+/+h+i+@   ",
"j+k+l+m+n+o+p+;+q+r+s+}.C.'+t+e.u+v+w+x+y+z+A+B+C+D+`.E+-.F+G+H+",
"  I+J+K+L+M+N+O+P+Q+Q *.R+@+S+T+U+V+W+X+        Y+Z+`+ @)+.@@   ",
"  +@@@#@ @>.$@}.%@t+u+&@*@=@-@;@>@,@              '@@ )@!@@ H+  ",
"  ~@{@]@f.g.^@F+*./@J+(@_@:@<@[@                      }@|@      ",
"  a.1@J+2@g.^@>.[.%@3@8 <@4@                                    ",
"  M 5@J+6@t+|.>.[.o 7@8@                                        ",
"    9@0@*@t+|.%@-.Q a@b@                                        ",
"    c@d@J+n |.%@=.Q e@f@                                        ",
"      g@h@i@F+*.o >.j@k@                                        ",
"      l@m@*@>.[.n@o@p@k@                                        ",
"        l@q@r@*@J+J+s@t@                                        ",
"        u@v@w@x@y@z@A@                                          ",
"          B@C@D@E@F@                                            "};
