/* XPM */
static char * italy_xpm[] = {
"16 11 5 1",
" 	c None",
".	c #000000",
"+	c #008000",
"@	c #FFFFFF",
"#	c #FF0000",
"................",
".+++++@@@@#####.",
".+++++@@@@#####.",
".+++++@@@@#####.",
".+++++@@@@#####.",
".+++++@@@@#####.",
".+++++@@@@#####.",
".+++++@@@@#####.",
".+++++@@@@#####.",
".+++++@@@@#####.",
"................"};
