/* XPM */
static char * open_xpm[] = {
"32 32 93 2",
"  	c None",
". 	c #000000",
"+ 	c #5E5E5E",
"@ 	c #2B2B2B",
"# 	c #020202",
"$ 	c #606060",
"% 	c #FAFAFA",
"& 	c #979797",
"* 	c #2C2C2C",
"= 	c #040404",
"- 	c #EFEFEF",
"; 	c #767676",
"> 	c #616161",
", 	c #2D2D2D",
"' 	c #5D5D5D",
") 	c #B9B9B9",
"! 	c #808080",
"~ 	c #4A4A4A",
"{ 	c #FDFDFD",
"] 	c #EEEEEE",
"^ 	c #B4B4B4",
"/ 	c #989898",
"( 	c #FEFEFE",
"_ 	c #BDBDBD",
": 	c #A9A9A9",
"< 	c #919191",
"[ 	c #A5A5A5",
"} 	c #838383",
"| 	c #9A9A9A",
"1 	c #878787",
"2 	c #8D8D8D",
"3 	c #929292",
"4 	c #ABABAB",
"5 	c #818181",
"6 	c #B8B8B8",
"7 	c #2E2E2E",
"8 	c #010101",
"9 	c #8E8E8E",
"0 	c #949494",
"a 	c #7A7A7A",
"b 	c #707070",
"c 	c #303030",
"d 	c #F0F0F0",
"e 	c #BABABA",
"f 	c #858585",
"g 	c #848484",
"h 	c #5C5C5C",
"i 	c #2A2A2A",
"j 	c #666666",
"k 	c #D4D4D4",
"l 	c #CFCFCF",
"m 	c #B7B7B7",
"n 	c #999999",
"o 	c #969696",
"p 	c #4F4F4F",
"q 	c #515151",
"r 	c #353535",
"s 	c #292929",
"t 	c #262626",
"u 	c #0B0B0B",
"v 	c #151515",
"w 	c #171717",
"x 	c #111111",
"y 	c #0E0E0E",
"z 	c #101010",
"A 	c #222222",
"B 	c #8B8B8B",
"C 	c #888888",
"D 	c #909090",
"E 	c #6F6F6F",
"F 	c #6B6B6B",
"G 	c #242424",
"H 	c #090909",
"I 	c #CECECE",
"J 	c #FFFFFF",
"K 	c #E6E6E6",
"L 	c #DCDCDC",
"M 	c #727272",
"N 	c #0D0D0D",
"O 	c #8A8A8A",
"P 	c #E3E3E3",
"Q 	c #CBCBCB",
"R 	c #E1E1E1",
"S 	c #BCBCBC",
"T 	c #7C7C7C",
"U 	c #B3B3B3",
"V 	c #A0A0A0",
"W 	c #AFAFAF",
"X 	c #4D4D4D",
"Y 	c #393939",
"Z 	c #494949",
"` 	c #454545",
" .	c #0C0C0C",
"                                                                ",
"                                                                ",
"                                                                ",
"                                                                ",
"                              . .                               ",
"                            . + @ #                             ",
"                          . $ % & * =                           ",
"                        . $ % - ; > , =                         ",
"                      . ' % - ) ! ; ~ , =                       ",
"                    . + { ] ) ^ / ! ; ~ , =                     ",
"                  . ' ( ] _ : / < [ } ; ~ , =                   ",
"                . ' ( ] _ : | 1 2 3 4 5 ; ~ , =                 ",
"              . ' % - ) : | 1 } 1 < / 6 ! ; ~ 7 8               ",
"            . ' % - ) : 9 1 } } } 2 0 / 6 a b ~ c .             ",
"          . $ % d e [ 9 1 f g } } 2 < / / 6 a h ~ i .           ",
"        . j k l m n } } } 2 2 < o o 0 o o o 6 j h ~ i .         ",
"      . p q h h h h h h h h h h h h h h h h h h h r s t .       ",
"      . . . . . . . . . . . . . . . . . . . # . . . . . .       ",
"                                                                ",
"                                                                ",
"              8 u v w x y y y y y y y y z A 8 . .               ",
"              = < B C 2 D 0 0 0 0 0 0 0 E F > G .               ",
"              H 9 I - J J J J J J J J J K L M q .               ",
"              N O P Q R R R R R R R R R L S T q .               ",
"              N F R ^ / [ U U U U U U U V / M q .               ",
"              H q W M M M M M M M M M M M M q X .               ",
"              = Y q q q q q q q q q q q q q Z ` .               ",
"              8 = H  .y y y y y y y y y . . . . .               ",
"                                                                ",
"                                                                ",
"                                                                ",
"                                                                "};
