/* XPM */
static char * sound_xpm[] = {
"32 32 276 2",
"  	c None",
". 	c #00CC00",
"+ 	c #00D400",
"@ 	c #00DC00",
"# 	c #00E400",
"$ 	c #00EC00",
"% 	c #00F400",
"& 	c #00FC00",
"* 	c #00F800",
"= 	c #00EE00",
"- 	c #00E300",
"; 	c #00D800",
"> 	c #00CE00",
", 	c #00B500",
"' 	c #00BD00",
") 	c #00C400",
"! 	c #00D900",
"~ 	c #00D700",
"{ 	c #00DB00",
"] 	c #00DD00",
"^ 	c #00D300",
"/ 	c #00D600",
"( 	c #00C300",
"_ 	c #00B701",
": 	c #00AC01",
"< 	c #00AD00",
"[ 	c #00B400",
"} 	c #00BC00",
"| 	c #00B303",
"1 	c #009C06",
"2 	c #007808",
"3 	c #006400",
"4 	c #007302",
"5 	c #009B00",
"6 	c #00A900",
"7 	c #00B300",
"8 	c #00AE00",
"9 	c #00A200",
"0 	c #008904",
"a 	c #009E00",
"b 	c #00A400",
"c 	c #00AA00",
"d 	c #00A401",
"e 	c #008108",
"f 	c #005400",
"g 	c #008900",
"h 	c #009800",
"i 	c #008303",
"j 	c #009600",
"k 	c #009C00",
"l 	c #007108",
"m 	c #005D00",
"n 	c #008500",
"o 	c #008E00",
"p 	c #007704",
"q 	c #009400",
"r 	c #008D02",
"s 	c #003511",
"t 	c #007600",
"u 	c #008300",
"v 	c #006307",
"w 	c #008D00",
"x 	c #008402",
"y 	c #007000",
"z 	c #007601",
"A 	c #003C0F",
"B 	c #007400",
"C 	c #00460C",
"D 	c #007803",
"E 	c #00DE00",
"F 	c #00E800",
"G 	c #00F200",
"H 	c #00F700",
"I 	c #00E900",
"J 	c #006F00",
"K 	c #006505",
"L 	c #00C100",
"M 	c #00CA00",
"N 	c #00CF00",
"O 	c #00C200",
"P 	c #005407",
"Q 	c #00B600",
"R 	c #00BF00",
"S 	c #00BD02",
"T 	c #00AC05",
"U 	c #009605",
"V 	c #007307",
"W 	c #006F05",
"X 	c #006905",
"Y 	c #006205",
"Z 	c #005D05",
"` 	c #00A000",
" .	c #00A801",
"..	c #00A600",
"+.	c #009103",
"@.	c #009A00",
"#.	c #00A800",
"$.	c #009A04",
"%.	c #00490F",
"&.	c #007200",
"*.	c #009300",
"=.	c #009102",
"-.	c #003B11",
";.	c #006E00",
">.	c #008700",
",.	c #007504",
"'.	c #008F00",
").	c #007E04",
"!.	c #007D00",
"~.	c #004C0B",
"{.	c #008202",
"].	c #006D00",
"^.	c #006904",
"/.	c #005B09",
"(.	c #ABABAB",
"_.	c #9F9F9F",
":.	c #959595",
"<.	c #8F8F8F",
"[.	c #9B9B9B",
"}.	c #A2A2A2",
"|.	c #A7A7A7",
"1.	c #ACACAC",
"2.	c #AFAFAF",
"3.	c #B1B1B1",
"4.	c #B8B8B8",
"5.	c #C0C0C0",
"6.	c #C9C9C9",
"7.	c #006C01",
"8.	c #999999",
"9.	c #7D7D7D",
"0.	c #7F7F7F",
"a.	c #767676",
"b.	c #6E6E6E",
"c.	c #686868",
"d.	c #626262",
"e.	c #636363",
"f.	c #6A6A6A",
"g.	c #737373",
"h.	c #7B7B7B",
"i.	c #8A8A8A",
"j.	c #9C9C9C",
"k.	c #BCBCBC",
"l.	c #C1C1C3",
"m.	c #969696",
"n.	c #747474",
"o.	c #797979",
"p.	c #6B6B6B",
"q.	c #707070",
"r.	c #818181",
"s.	c #929292",
"t.	c #9A9A9A",
"u.	c #A3A3A3",
"v.	c #B0B0B0",
"w.	c #BABABA",
"x.	c #BCBCBF",
"y.	c #6C6C6C",
"z.	c #666666",
"A.	c #777777",
"B.	c #888888",
"C.	c #909090",
"D.	c #989898",
"E.	c #A1A1A1",
"F.	c #A9A9A9",
"G.	c #B9B9B9",
"H.	c #BFBFBF",
"I.	c #C1C1C1",
"J.	c #6F6F6F",
"K.	c #696969",
"L.	c #646464",
"M.	c #757575",
"N.	c #868686",
"O.	c #8E8E8E",
"P.	c #B7B7B7",
"Q.	c #C8C8C8",
"R.	c #CBCBCB",
"S.	c #C3C3C3",
"T.	c #A0A0A7",
"U.	c #717171",
"V.	c #D7D7D7",
"W.	c #E7E7E7",
"X.	c #EEEEEE",
"Y.	c #DCDCDC",
"Z.	c #C7C7C7",
"`.	c #B4B4B4",
" +	c #A5A5A5",
".+	c #AEAEAE",
"++	c #B5B5B5",
"@+	c #BDBDBD",
"#+	c #C6C6C6",
"$+	c #CECECE",
"%+	c #D6D6D6",
"&+	c #CACACA",
"*+	c #C6C6C8",
"=+	c #AAAAAA",
"-+	c #CFCFCF",
";+	c #BBBBBB",
">+	c #C4C4C4",
",+	c #CCCCCC",
"'+	c #D4D4D4",
")+	c #5F5F5F",
"!+	c #727272",
"~+	c #656565",
"{+	c #787878",
"]+	c #919191",
"^+	c #8B8B8B",
"/+	c #808080",
"(+	c #D2D2D2",
"_+	c #DADADA",
":+	c #E3E3E3",
"<+	c #D0D0D0",
"[+	c #C2C2C2",
"}+	c #4D4D4D",
"|+	c #505050",
"1+	c #5D5D5D",
"2+	c #D8D8D8",
"3+	c #E1E1E1",
"4+	c #E6E6E6",
"5+	c #ACACAD",
"6+	c #3C3C3C",
"7+	c #616161",
"8+	c #373737",
"9+	c #353535",
"0+	c #3E3E3E",
"a+	c #474747",
"b+	c #3D3D3D",
"c+	c #DFDFDF",
"d+	c #E5E5E5",
"e+	c #606068",
"f+	c #2A2A2A",
"g+	c #7A7A7A",
"h+	c #5C5C5C",
"i+	c #494949",
"j+	c #3A3A3A",
"k+	c #393939",
"l+	c #4A4A4A",
"m+	c #9E9E9E",
"n+	c #DDDDDD",
"o+	c #D9D9D9",
"p+	c #C5C5C5",
"q+	c #767678",
"r+	c #252525",
"s+	c #4C4C4C",
"t+	c #838383",
"u+	c #606060",
"v+	c #E0E0E0",
"w+	c #D5D5D5",
"x+	c #6F6F72",
"y+	c #343434",
"z+	c #242424",
"A+	c #535353",
"B+	c #A0A0A0",
"C+	c #727273",
"D+	c #58585F",
"E+	c #313131",
"F+	c #515151",
"G+	c #939393",
"H+	c #A4A4A4",
"I+	c #949494",
"J+	c #828282",
"K+	c #646466",
"L+	c #52525A",
"M+	c #444444",
"N+	c #404040",
"O+	c #454545",
"P+	c #565656",
"Q+	c #7E7E7E",
"R+	c #5F5F60",
"S+	c #4B4B4B",
"T+	c #464646",
"U+	c #434343",
"V+	c #373745",
"W+	c #535356",
"X+	c #5E5E5E",
"Y+	c #616163",
"Z+	c #5F5F63",
"`+	c #4F4F56",
"                    . + @ # $ % & * = - ; >                     ",
"              , ' ) . + @ + ! ~ { ] ^ / ; > ( _ :               ",
"            < [ } ' | 1 2             3 4 5 6 7 8 9 0           ",
"        a b c d e                             f g 5 h i         ",
"      j k k l                                     m n o p       ",
"      q r s                                           t u v     ",
"    w x                                                 y z     ",
"    g A                                                   B C   ",
"    D                     E F G & H I                     J C   ",
"    K               L M + E F G & H I @ N O ,               P   ",
"                < Q R S T U V W X Y Z `  .6 , ..+.              ",
"            @.9 #.$.%.                      &.*.@.i             ",
"            h =.-.                              ;.>.,.          ",
"          '.).                                      !.~.        ",
"          {.                                        ].^.        ",
"          /.      (._.:.<.:.[.}.|.1.2.3.4.5.6.        7.        ",
"              8.9.0.a.b.c.d.d.e.f.g.h.i.j.(.4.k.l.              ",
"          m.n.o.p.d.d.d.d.d.d.c.q.o.r.i.s.t.u.v.w.5.x.          ",
"        <.g.y.d.d.d.d.d.d.d.z.b.A.0.B.C.D.E.F.3.G.H.I.x.        ",
"      j.J.K.d.d.d.d.d.d.d.L.y.M.9.N.O.m._.|.v.P.H.Q.R.S.T.      ",
"      h.U.d.d.d.d.d.d.d.C.5.V.W.X.Y.Z.`. +.+++@+#+$+%+&+*+      ",
"      L.n.d.d.d.d.d.g.=+I.#+@+`.=+G.V.-+w.++;+>+,+'+Y.,+$+      ",
"      )+!+d.d.d.d.~+s.{+N.]+^+/+{+{+h.j.E.D.H.&+(+_+:+<+[+      ",
"      }+n.L.d.d.d.c.~+|+|+|+|+|+|+|+|+1+f.~+++<+2+3+4+,+5+      ",
"      6+c.M.d.d.d.7+|+8+9+9+9+9+9+8+0+a+b+|+5.%+c+d+'+[+e+      ",
"        f+K.g+p.d.c.h+i+b+9+9+9+9+j+k+b+l+m+'+n+3+o+p+q+        ",
"          r+s+t+0.{+h.g.u+s+a+a+a+a+s+!+1.%+3+v+w+u.x+          ",
"            y+z+A+r.:.8._.}.D.B+|..+6._+Y.Y.I.t.C+D+            ",
"                6+E+8+F+p.0.G+D.m+H+I+s.J+f.K+L+                ",
"                    k+|+M+0+N+O+}+P+K.Q+g.R+                    ",
"                    b+M+S+T+U+M+A+L.g.b.K+V+                    ",
"                        a+F+W+X+d.Y+Z+`+                        "};
