/* XPM */
static char * australia_xpm[] = {
"16 11 5 1",
" 	c None",
".	c #000000",
"+	c #FFFFFF",
"@	c #FF0000",
"#	c #0000FF",
"................",
".+@+@+@+#######.",
".+++@++++######.",
".@@@@@@@@######.",
".+++@++++######.",
".+@+@+@+#######.",
".##############.",
".##############.",
".##############.",
".##############.",
"................"};
