/* XPM */
static char * japan_xpm[] = {
"16 11 4 1",
" 	c None",
".	c #000000",
"+	c #FFFFFF",
"@	c #FF0000",
"................",
".++++++++++++++.",
".++++++++++++++.",
".+++++@@@@+++++.",
".++++@@@@@@++++.",
".++++@@@@@@++++.",
".++++@@@@@@++++.",
".+++++@@@@+++++.",
".++++++++++++++.",
".++++++++++++++.",
"................"};
