/* XPM */
static char * stop_xpm[] = {
"32 32 76 1",
" 	c None",
".	c #010101",
"+	c #0B0B0B",
"@	c #151515",
"#	c #171717",
"$	c #111111",
"%	c #0E0E0E",
"&	c #101010",
"*	c #222222",
"=	c #000000",
"-	c #040404",
";	c #919191",
">	c #8B8B8B",
",	c #888888",
"'	c #8D8D8D",
")	c #909090",
"!	c #949494",
"~	c #6F6F6F",
"{	c #6B6B6B",
"]	c #616161",
"^	c #242424",
"/	c #090909",
"(	c #8E8E8E",
"_	c #CECECE",
":	c #EFEFEF",
"<	c #FFFFFF",
"[	c #E6E6E6",
"}	c #DCDCDC",
"|	c #727272",
"1	c #515151",
"2	c #0D0D0D",
"3	c #8A8A8A",
"4	c #E3E3E3",
"5	c #CBCBCB",
"6	c #E1E1E1",
"7	c #BCBCBC",
"8	c #7C7C7C",
"9	c #C0C0C0",
"0	c #D7D7D7",
"a	c #C8C8C8",
"b	c #B5B5B5",
"c	c #B3B3B3",
"d	c #B0B0B0",
"e	c #A8A8A8",
"f	c #9B9B9B",
"g	c #9D9D9D",
"h	c #9A9A9A",
"i	c #999999",
"j	c #989898",
"k	c #BBBBBB",
"l	c #8F8F8F",
"m	c #929292",
"n	c #969696",
"o	c #9C9C9C",
"p	c #767676",
"q	c #F4F4F4",
"r	c #CACACA",
"s	c #A0A0A0",
"t	c #828282",
"u	c #C9C9C9",
"v	c #9F9F9F",
"w	c #939393",
"x	c #A4A4A4",
"y	c #C1C1C1",
"z	c #959595",
"A	c #9E9E9E",
"B	c #ACACAC",
"C	c #A2A2A2",
"D	c #B4B4B4",
"E	c #A5A5A5",
"F	c #AFAFAF",
"G	c #4D4D4D",
"H	c #393939",
"I	c #494949",
"J	c #454545",
"K	c #0C0C0C",
"                                ",
"                                ",
"                                ",
"                                ",
"                                ",
"                                ",
"                                ",
"                                ",
"        .+@#$%%%%%%%&*.==       ",
"        -;>,')!!!!!!~{]^=       ",
"        /(_:<<<<<<<<[}|1=       ",
"        234566666666}781=       ",
"        %8<90a7bccccd'|1=       ",
"        %8<9efghhfifj'|1=       ",
"        %8<kf>'l)m!no'|1=       ",
"        %pqrg)l)m!njst~1=       ",
"        %pquvw)m!njhxt~1=       ",
"        %pqyh!m!njhoet~1=       ",
"        %pqyfz!njhoABt~1=       ",
"        %pq5gjnjhoAsd!|1=       ",
"        %pq5gijhoAsCd!|1=       ",
"        2{6DjEccccccsj|1=       ",
"        /1F|||||||||||1G=       ",
"        -H111111111111IJ=       ",
"        .-/K%%%%%%%%=====       ",
"                                ",
"                                ",
"                                ",
"                                ",
"                                ",
"                                ",
"                                "};
